# xmcd CD database file
#
# Track frame offsets:
#	150
#	21191
#	50321
#	76241
#	118771
#	139630
#	164458
#	179830
#
# Disc length: 2832 seconds
#
# Revision: 0
# Processed by: cddbd v1.5.2PL0 Copyright (c) Steve Scherf et al.
# Submitted via: CDex 1.70
#
DISCID=670b0e08
DTITLE=Pedro Giraudo - Desconsuelo
DYEAR=2005
DGENRE=Jazz
TTITLE0=Mate Amargo
TTITLE1=Con un Nudo en la Garganta
TTITLE2=La Bronca 
TTITLE3=La Viudita
TTITLE4=Eso Grito
TTITLE5=A Dario Iscaro
TTITLE6=Primer Intento
TTITLE7=Contrapuntren
EXTD=YEAR: 2005
EXTT0=
EXTT1=
EXTT2=
EXTT3=
EXTT4=
EXTT5=
EXTT6=
EXTT7=
PLAYORDER=
